<?xml version="1.0" encoding="UTF-8"?>
<!-- Generator: visioncortex VTracer 0.6.1 -->
<svg version="1.1" xmlns="http://www.w3.org/2000/svg" width="1280" height="704">
<path d="M0 0 C39.6 0.33 79.2 0.66 120 1 C120 91.09 120 181.18 120 274 C181.71 274 243.42 274 307 274 C307 183.91 307 93.82 307 1 C342.77708764 -16.88854382 387.00143629 0.66102912 427 1 C427 224.08 427 447.16 427 677 C388.06 677 349.12 677 309 677 C306.87567902 673.81351853 306.7505345 673.04640049 306.75390434 669.39854908 C306.74992225 668.44857573 306.74594015 667.49860239 306.74183738 666.51984197 C306.74766307 665.47413351 306.75348875 664.42842504 306.75949097 663.35102844 C306.75692769 661.6872195 306.75692769 661.6872195 306.75431263 659.98979825 C306.75100493 656.25395774 306.7620426 652.51829481 306.77294922 648.7824707 C306.77351306 646.11210728 306.77328548 643.4417549 306.77206421 640.77139282 C306.77101454 635.01248125 306.77729965 629.25361493 306.78853989 623.49471474 C306.80478089 615.16827678 306.81000146 606.84186074 306.81251587 598.51540866 C306.81689517 585.00692344 306.83021066 571.49846235 306.84912109 557.98999023 C306.86747381 544.86629353 306.88161036 531.7426034 306.89013672 518.61889648 C306.89067271 517.80195716 306.89120871 516.98501783 306.89176095 516.14332277 C306.89591969 509.75450066 306.89983357 503.36567842 306.90367007 496.97685611 C306.9225439 465.65121526 306.96277897 434.3256348 307 403 C245.29 402.67 183.58 402.34 120 402 C120.01160156 421.76777344 120.02320313 441.53554688 120.03515625 461.90234375 C120.04026247 474.38476571 120.04512354 486.86718704 120.04882812 499.34960938 C120.05078614 505.90323896 120.05280666 512.45686852 120.05493164 519.01049805 C120.05519539 519.83194248 120.05545914 520.65338692 120.05573088 521.49972361 C120.0600858 534.77899436 120.0679727 548.0582608 120.0771528 561.337529 C120.08648873 574.95531299 120.09205548 588.57309472 120.09408849 602.19088179 C120.09546385 610.60067128 120.0998151 619.01044859 120.10791647 627.42023433 C120.11318318 633.17916473 120.11480447 638.93808879 120.11350138 644.69702142 C120.11285788 648.02467129 120.11441524 651.35228253 120.11920547 654.67993164 C120.12413528 658.27918713 120.12300093 661.87838931 120.12025452 665.47764587 C120.12316736 666.54085287 120.1260802 667.60405986 120.12908131 668.69948524 C120.12709026 669.65592668 120.12509921 670.61236812 120.12304783 671.59779263 C120.12342755 672.42975987 120.12380727 673.26172711 120.1241985 674.11890548 C120 676 120 676 119 677 C117.46914161 677.09581822 115.93386244 677.12188108 114.40000916 677.12025452 C113.40576431 677.12162918 112.41151947 677.12300385 111.387146 677.12442017 C110.28735413 677.12082489 109.18756226 677.11722961 108.05444336 677.11352539 C106.90337601 677.11367142 105.75230865 677.11381744 104.56636047 677.1139679 C100.74083609 677.11326818 96.91535969 677.10547302 93.08984375 677.09765625 C90.44568407 677.09579228 87.80152404 677.09436828 85.15736389 677.09336853 C78.89584583 677.09025549 72.63434514 677.08204248 66.37283474 677.07201904 C59.24598463 677.06085705 52.1191337 677.05534724 44.99227703 677.05032361 C30.3281757 677.03985984 15.66408809 677.02226093 1 677 C-0.77645538 673.93268846 -1.24991943 671.72560171 -1.24954766 668.19547302 C-1.25429847 667.22348371 -1.25904928 666.2514944 -1.26394406 665.25005087 C-1.25897588 664.18272464 -1.2540077 663.1153984 -1.24888897 662.01572895 C-1.25149625 660.87682605 -1.25410354 659.73792316 -1.25678983 658.56450805 C-1.2620195 655.38894722 -1.25823497 652.21354109 -1.25073375 649.03798939 C-1.2447766 645.58871293 -1.2503893 642.13945259 -1.25455457 638.69017619 C-1.26024953 632.64022432 -1.25847808 626.59030992 -1.2518692 620.5403595 C-1.24206892 611.54420746 -1.24367945 602.54808297 -1.2476195 593.55192776 C-1.2539016 578.41994102 -1.25071517 563.28796985 -1.24202538 548.15598488 C-1.23342017 533.1683621 -1.228505 518.18074632 -1.22869301 503.19312096 C-1.22870065 502.261916 -1.2287083 501.33071105 -1.22871618 500.37128777 C-1.22875708 496.59155568 -1.22882269 492.8118236 -1.22892199 489.03209151 C-1.22982861 453.55591645 -1.21987461 418.07975205 -1.20449232 382.60358069 C-1.19086452 351.05741487 -1.18463115 319.51125663 -1.18530273 287.96508789 C-1.18534315 285.93918412 -1.18538351 283.91328035 -1.18542381 281.88737658 C-1.18544416 280.8858266 -1.18546452 279.88427663 -1.18548548 278.85237665 C-1.18558627 273.81113192 -1.18567686 268.76988719 -1.18575573 263.72864246 C-1.18577244 262.7341681 -1.18578916 261.73969373 -1.18580638 260.71508378 C-1.1861712 234.38390628 -1.18163672 208.05272973 -1.17542917 181.72155303 C-1.17520889 180.78543271 -1.17498862 179.84931239 -1.17476168 178.88482478 C-1.17387341 175.12015468 -1.17298502 171.35548458 -1.17207072 167.59081448 C-1.16890614 154.4713666 -1.16740087 141.35191946 -1.16695923 128.23247122 C-1.16636321 111.33142746 -1.1623902 94.43038997 -1.15252777 77.52934889 C-1.14739754 68.582408 -1.14500845 59.63547633 -1.14652396 50.68853404 C-1.14725495 44.72361782 -1.14438052 38.7587106 -1.13848015 32.79379727 C-1.13521067 29.38779551 -1.13356499 25.98181313 -1.13624074 22.57581041 C-1.13828229 18.91943526 -1.13428409 15.26311772 -1.12863445 11.60674763 C-1.13068977 10.53239789 -1.13274509 9.45804816 -1.13486269 8.35114238 C-1.13210295 7.38666362 -1.1293432 6.42218487 -1.12649983 5.42847949 C-1.12620833 4.5909786 -1.12591683 3.7534777 -1.1256165 2.89059799 C-1 1 -1 1 0 0 Z " fill="#EB812A" transform="translate(850,2)"/>
<path d="M0 0 C0.67139366 -0.00175304 1.34278731 -0.00350607 2.03452623 -0.00531223 C4.30644738 -0.01000057 6.57830533 -0.0074995 8.85022926 -0.00507832 C10.48665088 -0.00694487 12.12307206 -0.00924494 13.75949252 -0.01194364 C18.27368123 -0.01808737 22.78785149 -0.01792503 27.30204344 -0.01674926 C32.16375549 -0.0165459 37.02546152 -0.02205781 41.88717079 -0.02680683 C51.41871007 -0.03512806 60.95024316 -0.03786234 70.48178576 -0.03841921 C78.22627093 -0.03889368 85.97075405 -0.04094496 93.71523857 -0.04411983 C115.65215943 -0.05293047 137.5890754 -0.05753858 159.52599804 -0.05678936 C160.70965359 -0.0567494 161.89330913 -0.05670945 163.11283302 -0.05666828 C164.29792684 -0.0566274 165.48302066 -0.05658652 166.70402642 -0.0565444 C185.91648879 -0.05613783 205.12893157 -0.06570919 224.34138827 -0.07980665 C244.04888857 -0.09415373 263.7563793 -0.10107775 283.46388495 -0.10021287 C294.5360685 -0.09988032 305.60823152 -0.10265273 316.68041039 -0.11339092 C326.10675253 -0.12247403 335.53306484 -0.12468928 344.95940946 -0.1178815 C349.77197304 -0.11460516 354.5844793 -0.11459953 359.39703751 -0.12323475 C363.79874158 -0.13105177 368.20034242 -0.12971787 372.60204382 -0.12095062 C374.19827659 -0.11940497 375.79451689 -0.12127144 377.3907408 -0.12681069 C379.55338076 -0.13382113 381.71565358 -0.12861664 383.87828064 -0.12025452 C385.68336375 -0.12058057 385.68336375 -0.12058057 387.52491319 -0.12091321 C390.56498146 0.12863445 390.56498146 0.12863445 394.56498146 2.12863445 C394.56498146 44.03863445 394.56498146 85.94863445 394.56498146 129.12863445 C300.51498146 129.12863445 206.46498146 129.12863445 109.56498146 129.12863445 C109.56498146 173.01863445 109.56498146 216.90863445 109.56498146 262.12863445 C181.50498146 262.12863445 253.44498146 262.12863445 327.56498146 262.12863445 C327.56498146 302.05863445 327.56498146 341.98863445 327.56498146 383.12863445 C255.62498146 383.12863445 183.68498146 383.12863445 109.56498146 383.12863445 C109.56498146 441.20863445 109.56498146 499.28863445 109.56498146 559.12863445 C110.55498146 558.79863445 111.54498146 558.46863445 112.56498146 558.12863445 C114.33650337 558.04188053 116.11119776 558.0149021 117.88483143 558.02120399 C118.99504097 558.02269634 120.10525051 558.02418869 121.24910277 558.02572626 C122.47379486 558.03253005 123.69848694 558.03933384 124.96029091 558.0463438 C126.90586497 558.05118749 126.90586497 558.05118749 128.89074355 558.05612904 C132.49829004 558.06524628 136.1057865 558.08067826 139.71330607 558.09711182 C143.60080373 558.11372479 147.48831796 558.12452349 151.37583351 558.13601971 C158.11366326 558.15674476 164.85147147 558.18117334 171.58927917 558.20810032 C181.33108011 558.24702713 191.0728938 558.28039498 200.81471965 558.31239558 C216.61926544 558.36446284 232.42379174 558.4210409 248.22831154 558.48044109 C263.58312153 558.53814146 278.93793677 558.59372646 294.29276466 558.64645672 C295.23885409 558.64970644 296.18494352 558.65295616 297.15970232 558.65630435 C301.90584089 558.67259376 306.6519796 558.68884148 311.39811838 558.70506847 C350.78709681 558.83979284 390.1760463 558.98183164 429.56498146 559.12863445 C429.588311 574.49664894 429.6059609 589.86466261 429.61679363 605.23269081 C429.62195647 612.36785186 429.62899894 619.50300193 429.64042091 626.63815594 C429.65142821 633.51753183 429.65725763 640.39689627 429.6598587 647.2762804 C429.66171352 649.9074506 429.66533519 652.53862014 429.67071152 655.1697855 C429.67791781 658.84089695 429.67897258 662.51196049 429.67850685 666.18307781 C429.68210213 667.28286968 429.6856974 668.38266155 429.68940163 669.51578045 C429.68802696 670.51002529 429.6866523 671.50427013 429.68523598 672.52864361 C429.68661867 673.83251978 429.68661867 673.83251978 429.68802929 675.16273689 C429.56498146 677.12863445 429.56498146 677.12863445 428.56498146 678.12863445 C426.25063178 678.22824773 423.96609244 678.26227386 421.65117073 678.25447559 C420.91587393 678.25592903 420.18057713 678.25738248 419.42299861 678.25887996 C416.92770355 678.2625663 414.43246858 678.25904144 411.93717384 678.2556181 C410.142735 678.25676888 408.34829639 678.25835611 406.55385828 678.26034534 C401.5983573 678.26454458 396.64287543 678.26244531 391.68737435 678.25935912 C386.35262496 678.25710765 381.01787899 678.26058337 375.68313026 678.26333904 C365.22267363 678.26779846 354.76222415 678.26681952 344.30176723 678.2639264 C335.80446748 678.26167304 327.30716973 678.26135955 318.80986977 678.26245022 C317.60301184 678.26260345 316.39615391 678.26275668 315.15272453 678.26291456 C312.7014368 678.26323427 310.25014906 678.26355848 307.79886132 678.26388715 C284.7834918 678.26674245 261.76812625 678.26345415 238.75275737 678.25808679 C218.98101627 678.2536187 199.20928105 678.25439462 179.43754005 678.25900555 C156.50760409 678.26435044 133.57767162 678.26646775 110.64773512 678.26339328 C108.2051878 678.26307472 105.76264048 678.26276034 103.32009315 678.26245022 C102.11814089 678.26229594 100.91618862 678.26214167 99.67781356 678.26198272 C91.18533242 678.26111731 82.69285349 678.26258095 74.2003727 678.26492977 C63.85861579 678.26772703 53.51686649 678.26699108 43.17511046 678.26164903 C37.89308035 678.25901101 32.61106293 678.25800864 27.3290329 678.26129818 C22.50187503 678.26425909 17.67474171 678.26267179 12.8475861 678.25732063 C11.09323588 678.25619556 9.33888363 678.25678959 7.5845347 678.25919642 C5.21592358 678.26219885 2.84739866 678.25915755 0.47879219 678.25447559 C-0.21618522 678.25681676 -0.91116262 678.25915793 -1.62719995 678.26157004 C-6.3208682 678.2427848 -6.3208682 678.2427848 -7.43501854 677.12863445 C-7.53426156 675.64506922 -7.56370412 674.15678388 -7.56562907 672.66990417 C-7.56930978 671.69866685 -7.57299049 670.72742953 -7.57678273 669.72676077 C-7.57576007 668.64485027 -7.5747374 667.56293977 -7.57368374 666.44824409 C-7.57652596 665.30574964 -7.57936817 664.16325518 -7.58229652 662.98613968 C-7.58923235 659.78657272 -7.59164051 656.58703755 -7.59222394 653.38746424 C-7.59394482 649.91734372 -7.60142552 646.44723508 -7.60820049 642.97712141 C-7.61928764 636.88596569 -7.62664098 630.79481414 -7.63159943 624.70365047 C-7.6389892 615.64621371 -7.65206851 606.58879153 -7.66634518 597.53136332 C-7.69019431 582.2977331 -7.7093822 567.06410029 -7.72594452 551.83046055 C-7.74236642 536.73987696 -7.76084109 521.6492982 -7.78207779 506.55872059 C-7.7840542 505.15306806 -7.7840542 505.15306806 -7.78607054 503.71901852 C-7.79277231 498.96025707 -7.79951095 494.20149568 -7.8062638 489.44273431 C-7.85406987 455.70677276 -7.8972425 421.97080671 -7.93770409 388.23483562 C-7.9770308 355.45390781 -8.01844768 322.67298373 -8.06270409 289.89206219 C-8.06406662 288.88221192 -8.06542915 287.87236165 -8.06683296 286.83190985 C-8.08051794 276.69089107 -8.09424551 266.54987235 -8.1080043 256.40885367 C-8.1360334 235.74908712 -8.1637781 215.08932019 -8.19135094 194.42955303 C-8.19261914 193.47957981 -8.19388733 192.52960659 -8.19519396 191.5508463 C-8.27989821 128.07678175 -8.3579724 64.6027087 -8.43501854 1.12863445 C-5.58721845 -0.29526559 -3.18564675 0.00186528 0 0 Z " fill="#EB812A" transform="translate(13.435018539428711,4.871365547180176)"/>
<path d="M0 0 C0.33 0.33 0.66 0.66 1 1 C2.57932331 1.18425439 4.16412556 1.32254756 5.75 1.4375 C9.55804076 1.77827638 12.49208153 2.44092512 16 4 C16.928125 4.144375 17.85625 4.28875 18.8125 4.4375 C22.01341159 5.00236675 24.8201966 6.00760577 27.8359375 7.19921875 C29.99713209 7.99893877 32.14901357 8.59466856 34.375 9.1875 C54.71327644 15.24240673 73.68852501 26.62414906 90 40 C90.85980469 40.65742188 91.71960938 41.31484375 92.60546875 41.9921875 C111.28833972 56.52016886 126.90112834 74.71207017 139 95 C139.83724609 96.32064453 139.83724609 96.32064453 140.69140625 97.66796875 C160.6683786 130.0690984 166.86510388 168.55859721 166 206 C165.99129883 206.71075684 165.98259766 207.42151367 165.97363281 208.15380859 C165.34385053 252.24942651 144.02122609 296.5446389 114 328 C112.80409229 329.38863663 111.61558294 330.78370958 110.4375 332.1875 C80.23258347 366.7074046 31.0177674 387.31315467 -14 390.875 C-16.33273797 390.94218715 -18.66636164 390.98232092 -21 391 C-22.53652747 391.05943685 -24.07298207 391.12077541 -25.609375 391.18359375 C-77.40526931 392.78873477 -127.35187971 371.75603665 -164.9375 336.8125 C-169.92792461 332.10252796 -174.69281225 327.35106949 -179 322 C-179.90832517 320.91492154 -180.81723837 319.8303352 -181.7265625 318.74609375 C-197.29296872 299.9767542 -211.28556144 277.39721477 -217.3125 253.59765625 C-217.97438405 251.09678755 -218.76648186 248.68934722 -219.625 246.25 C-220.9035964 242.52076051 -221.54705585 238.92551599 -222 235 C-222.46942458 232.25051319 -223.06381044 229.82053314 -224 227.1875 C-227.2705689 216.76256164 -226.18647311 205.67825801 -225 195 C-194.97 195 -164.94 195 -134 195 C-133.01 201.93 -132.02 208.86 -131 216 C-125.03372483 242.15982191 -110.50445314 265.63217331 -87.91723633 280.49731445 C-80.98083214 284.84738188 -73.57408635 287.94932633 -66 291 C-64.81921875 291.53496094 -63.6384375 292.06992187 -62.421875 292.62109375 C-39.85070671 301.71655312 -9.90217451 297.1919599 12 288.8125 C23.4120792 283.83683347 33.0962637 276.63818627 42 268 C42.67289063 267.40058594 43.34578125 266.80117188 44.0390625 266.18359375 C60.88706129 250.64450323 70.38669231 226.58630771 72 204 C72.1125088 199.33232723 72.09454465 194.66865834 72.0625 190 C72.05573242 188.12248047 72.05573242 188.12248047 72.04882812 186.20703125 C72.03711415 183.13797059 72.02071073 180.06901093 72 177 C71.67 177 71.34 177 71 177 C70.9175 175.72125 70.835 174.4425 70.75 173.125 C70.11528243 167.59266446 68.22816185 163.06585126 66 158 C65.49619444 156.75621946 64.99507349 155.5113494 64.49609375 154.265625 C53.95587622 128.43206568 35.24073632 111.07309385 10.0625 99.75 C-0.77918625 95.30430296 -11.35254106 92.6489747 -23.07421875 92.17578125 C-26 92 -26 92 -30 91 C-30 60.97 -30 30.94 -30 0 C-8.59756098 -1.64634146 -8.59756098 -1.64634146 0 0 Z M73 182 C74 186 74 186 74 186 Z M73 204 C74 208 74 208 74 208 Z M72 212 C73 215 73 215 73 215 Z M-225 213 C-224 216 -224 216 -224 216 Z M-224 222 C-223 224 -223 224 -223 224 Z M-39 298 C-39 298.33 -39 298.66 -39 299 C-37.02 299 -35.04 299 -33 299 C-33 298.67 -33 298.34 -33 298 C-34.98 298 -36.96 298 -39 298 Z M-26 298 C-26 298.33 -26 298.66 -26 299 C-24.02 299 -22.04 299 -20 299 C-20 298.67 -20 298.34 -20 298 C-21.98 298 -23.96 298 -26 298 Z " fill="#F48B23" transform="translate(657,175)"/>
<path d="M0 0 C3.46624097 2.87071939 6.74663385 5.89197323 10 9 C10.62648438 9.55171875 11.25296875 10.1034375 11.8984375 10.671875 C23.48945254 21.26637744 29.90085792 37.14821506 31.22314453 52.60913086 C32.16486295 74.46229779 28.02675796 93.58783965 13.3125 110.5390625 C-1.0604903 125.83464339 -18.82072812 134.51822235 -39.90966797 135.33447266 C-60.85819755 135.72883146 -79.28465266 128.96543064 -94.51123047 114.46484375 C-105.2458306 103.90275769 -113.57234008 91.05149149 -116 76 C-116.50273438 74.65421875 -116.50273438 74.65421875 -117.015625 73.28125 C-121.75810125 57.47299583 -116.43256044 39.63782516 -109.13256836 25.52270508 C-106.26193997 20.22546873 -103.06045504 15.46910897 -99 11 C-98.34644531 10.25492187 -97.69289063 9.50984375 -97.01953125 8.7421875 C-71.78937578 -18.37218723 -29.47174743 -21.89580046 0 0 Z M-116 46 C-115 48 -115 48 -115 48 Z M-117 52 C-116 55 -116 55 -116 55 Z M-117 67 C-116 70 -116 70 -116 70 Z " fill="#0099A1" transform="translate(670,309)"/>
<path d="M0 0 C0 10.23 0 20.46 0 31 C-3.774375 31.721875 -7.54875 32.44375 -11.4375 33.1875 C-68.50045069 44.5308515 -120.76282231 76.83425945 -154 125 C-157.88848701 130.86916881 -161.49018202 136.89854427 -165 143 C-165.39815918 143.68642578 -165.79631836 144.37285156 -166.20654297 145.08007812 C-180.12849136 169.33987582 -188.4603791 196.49523805 -193 224 C-203.56 224 -214.12 224 -225 224 C-225 216.18512564 -224.72450322 209.66815451 -223.125 202.1875 C-222.9086792 201.17123535 -222.6923584 200.1549707 -222.46948242 199.10791016 C-212.57924115 155.22099647 -191.48643696 114.54310764 -161.13671875 81.359375 C-159.28828021 79.31832038 -157.51665115 77.23625718 -155.75 75.125 C-128.13866418 43.5782554 -86.57397277 20.18019681 -47 8 C-45.69289063 7.59442871 -45.69289063 7.59442871 -44.359375 7.18066406 C-10.03858772 -3.34619591 -10.03858772 -3.34619591 0 0 Z M-221 197 C-220 199 -220 199 -220 199 Z M-223 207 C-222 209 -222 209 -222 209 Z M-224 213 C-223 215 -223 215 -223 215 Z " fill="#0099A1" transform="translate(597,116)"/>
<path d="M0 0 C0 10.23 0 20.46 0 31 C-3.526875 31.969375 -7.05375 32.93875 -10.6875 33.9375 C-38.79769162 41.97723428 -63.55329881 55.24230563 -84.57177734 75.62304688 C-85.83919726 76.84496967 -87.13086299 78.04163226 -88.42578125 79.234375 C-109.18966503 98.85495434 -121.8530417 126.56042172 -129.34912109 153.6550293 C-130.21510376 156.77497058 -131.11048202 159.88668708 -132 163 C-142.23 163 -152.46 163 -163 163 C-163 152.85048232 -163 152.85048232 -161.96875 148.7578125 C-161.73945801 147.84652588 -161.51016602 146.93523926 -161.27392578 145.99633789 C-161.01853027 145.04879639 -160.76313477 144.10125488 -160.5 143.125 C-160.23300293 142.12267334 -159.96600586 141.12034668 -159.69091797 140.08764648 C-156.98381778 130.32368805 -153.3056434 121.15741829 -149 112 C-148.50862549 110.9469165 -148.50862549 110.9469165 -148.00732422 109.87255859 C-138.23828834 89.1419538 -125.80738315 71.55046526 -110 55 C-109.11570312 54.06285156 -108.23140625 53.12570313 -107.3203125 52.16015625 C-100.73103669 45.35123791 -93.68585272 39.49579792 -86 34 C-85.42797852 33.5889502 -84.85595703 33.17790039 -84.26660156 32.75439453 C-63.73524742 18.15672714 -26.13780183 -5.22756037 0 0 Z " fill="#0099A1" transform="translate(597,177)"/>
<path d="M0 0 C0 10.56 0 21.12 0 32 C-2.7225 33.175625 -5.445 34.35125 -8.25 35.5625 C-39.42298727 49.32923648 -55.84156799 70.50585597 -69 101 C-79.56 101 -90.12 101 -101 101 C-103.39195253 89.04023736 -94.59400742 75.35573568 -89 65 C-88.40960938 63.90300781 -87.81921875 62.80601562 -87.2109375 61.67578125 C-83.4053651 54.890046 -79.08262812 48.88183997 -74 43 C-73.18789063 42.04222656 -72.37578125 41.08445312 -71.5390625 40.09765625 C-57.28066441 23.664068 -23.07953788 -4.61590758 0 0 Z " fill="#0099A1" transform="translate(597,239)"/>
<path d="M0 0 C0.33 0 0.66 0 1 0 C1 221.43 1 442.86 1 671 C0.67 671 0.34 671 0 671 C0 449.57 0 228.14 0 0 Z " fill="#EB812B" transform="translate(4,8)"/>
<path d="M0 0 C103.62 0 207.24 0 314 0 C314 0.33 314 0.66 314 1 C210.38 1 106.76 1 0 1 C0 0.67 0 0.34 0 0 Z " fill="#EB812B" transform="translate(126,562)"/>
<path d="M0 0 C70.62 0 141.24 0 214 0 C214 0.33 214 0.66 214 1 C143.38 1 72.76 1 0 1 C0 0.67 0 0.34 0 0 Z " fill="#EB812A" transform="translate(124,265)"/>
<path d="M0 0 C37.95 0 75.9 0 115 0 C115 0.33 115 0.66 115 1 C77.05 1 39.1 1 0 1 C0 0.67 0 0.34 0 0 Z " fill="#EB812B" transform="translate(1159,1)"/>
<path d="M0 0 C37.62 0 75.24 0 114 0 C114 0.33 114 0.66 114 1 C76.38 1 38.76 1 0 1 C0 0.67 0 0.34 0 0 Z " fill="#EB812B" transform="translate(852,1)"/>
<path d="M0 0 C29.04 0 58.08 0 88 0 C88 0.33 88 0.66 88 1 C58.96 1 29.92 1 0 1 C0 0.67 0 0.34 0 0 Z " fill="#F48B23" transform="translate(432,368)"/>
<path d="M0 0 C0.33 0 0.66 0 1 0 C1 29.04 1 58.08 1 88 C0.67 88 0.34 88 0 88 C0 58.96 0 29.92 0 0 Z " fill="#ED8428" transform="translate(625,175)"/>
<path d="M0 0 C4.29 0 8.58 0 13 0 C13 0.33 13 0.66 13 1 C8.71 1 4.42 1 0 1 C0 0.67 0 0.34 0 0 Z " fill="#F58C23" transform="translate(627,173)"/>
<path d="M0 0 C0.33 0 0.66 0 1 0 C1 2.97 1 5.94 1 9 C0.67 9 0.34 9 0 9 C0 6.03 0 3.06 0 0 Z " fill="#F58C23" transform="translate(430,370)"/>
<path d="" fill="#0099A1" transform="translate(0,0)"/>
<path d="" fill="#EB812B" transform="translate(0,0)"/>
<path d="" fill="#F58C23" transform="translate(0,0)"/>
<path d="" fill="#0099A1" transform="translate(0,0)"/>
<path d="" fill="#F58C23" transform="translate(0,0)"/>
</svg>
